<?xml version="1.0" encoding="UTF-8"?><svg id="Layer_2" xmlns="http://www.w3.org/2000/svg" width="799.8" height="605.1" viewBox="0 0 799.8 605.1"><g id="LOGO"><path d="M150.3,375.1c1.8.6,10.7,25.5,12.5,29.5,54.4,122.2,186.5,188.9,318,157,91.5-22.2,166.5-96.8,195.5-185.5l12.5-.5,14.7,29.2-16.7,34.3s-3.5-15.4-6.3-19.7-11-3.1-14.1,1.7c-5.8,9.1,6.6,30,8.3,40.2l-23.3,31.7c-2-8.9.4-28.3-14.6-23.5-12,3.8-2.3,31.6-2.1,40.8-.5,2.1-18.3,18.1-21.4,20.7s-6.8,5.7-7.5,5c1.6-7.6,5.6-22.5-5.2-24.3-18.5-3.1-10.9,29.8-14.7,39.6l-31.6,18.7c.2-6.9,5.5-12.9,3.1-20,0,0-3.1-3.7-4.5-4.5-15.7-9.5-16.6,23.3-21,33.1s-1.3,2-3,3c-5.8,3.3-21.1,8.1-28.1,9.9s-2.6.7-4,.5c1.5-4.3,4.3-8.4,5.8-12.7,2.4-7.3-2.1-13.1-9.8-12.8-11,1.9-14.5,24.3-20.9,32.1-19.3,3.8-38.9,5.4-58.5,6.5l-.5-2c7.3-4.9,17.2-13.4,9.7-22.7l-1.6-.9c-15.6-4.4-22.2,15.4-33.1,23-12.5.7-25.6-3.2-38-5.5l14-10.5c5-7.5-.8-15.4-9.4-14.4-8.5,1-25.5,18.3-30.8,17.8l-33.8-11.9,16.4-9c2.7-4.7,1.6-10.1-2.7-13.2-9.8-4.6-27.4,7.8-37.1,10l-31.6-19.7c8.7-1.2,27.4-5.1,19-17.5-6.7-9.9-29,2.3-39,2.1l-28-26.1c10.5-.8,27.3,3.6,23.5-13.5-4.4-9.7-28.8-5-38-6s-2.1-.3-3.5-1.5c-6.7-6-13.1-22.1-19-29.5,1.3-1.1,22.2,7.9,24.8-3.7,4-17.8-26.8-13.4-36.8-17.8-1.6-1.1-14.4-29.7-15-33s-.2-1.4,1-1c3.8,1.2,10.1,4.1,13.6,4.5,12.6,1.3,15.7-11.4,5.6-17.7l-28.2-10.3h35.5Z" fill="#fff"/><path d="M668.2,214.1c-2.7-.7-8.8-19.6-10.6-23.4C586.9,39.4,392.5-11.4,253.1,79.1c-49.1,31.8-86.1,79.2-107.4,133.6-4.6,3.4-7.6,1.2-10.3-2.9s-14.9-26.8-14.9-29.2c0-5.2,14-26,17.6-31.5,2.7,8.7,3,23.5,16,21,15.4-8.6-1.7-27.9-3.2-40.3l22.8-29.7c1.4.1,1.8,4.5,1.9,5.6.6,6.1-.9,12.9,5,16.3s2.3.8,3.5.7l3.2-.4c2.7-.3,5.1-1.8,6.4-4.1s2.1-4.7,2.1-6.6c0-8.4-4.1-19.7-4.1-28.1s.7-2.6,2-4c3.9-4.1,12.3-10.2,17.1-13.9,1.2-.9,9.2-7.3,9.9-6.6l-.2,16.4c0,4.4,3.3,8.2,7.7,8.3s6.3-1.4,8.3-4.3c5.9-8.4,1.5-24.5,4.6-34.4l33.5-18c-1,7-5.8,13.8-3.5,21l2,3c.7.6,1.5,1.2,2.5,1.5,20.3,6.4,15.1-30.5,23.3-35.8s19-6.1,23.7-7.3c3.9-1,8-1.7,12-2.5-2.8,6.8-13.3,18.3-4,24.5,16.7,11,22.3-28.7,33.5-30.4s12.4-.9,16.9-1.1,11.1.2,16.5,0c-2.3,3-5.7,5.6-8,8.5-6.4,8.3-2.2,19.3,8.2,17.3s17.4-19.4,23.4-24.8c12.6-.4,25.1.3,37.3,3-3.1,5.3-11.1,6.6-12.6,12.9-1.8,7.6,2.3,12.4,10.1,12.1s18.9-14.7,25.5-19.6c1.7-1,3.4-.5,5.2-.3,3.6.4,32,9.6,32.8,11.3-7.7,3.2-22.9,10.4-13.5,20.5,9,9.8,27.7-8.1,36.9-11.9,9.3,5.3,23.2,9.8,31.2,16.9,1,.9,2.1,1.4.5,2.5-5.6,3.9-16.8,2-17.1,12-.6,20.3,28.7,1.8,36.8.7s14.1,7.7,18.3,11.3,9.7,9.8,15,14c-6.8,2.4-21.9-1.2-23,9.1-1.8,18.1,31.4,6.7,41,9.9l23,30c-6.6.2-14.2-4.1-20.6-1.6-7.1,2.9-7.3,11.2-1.5,15.6,6.8,5.1,25.2,3.6,33.9,5.7l16.2,36.8c-6.8-2.8-19.1-10.1-24.4-2-3,4.6-1.1,8.8,2.5,12.4l23,11.5h-29.5Z" fill="#fff"/><path d="M697.7,229.8l-115,.8-5.7-6.9-57.3-.4-94-93,102.6,80.4,33.3.4-99.3-96.6c-.4-.4-1-.6-1.5-.5h-.8c-.9.2-1.8,0-2.5-.6l-8.5-6.4s-2.7-3.1-7.7,1.5c-5,4.6-10.7,11.9-10.7,11.9,0,0-2.9,3.2-7.1,1.6s-6.5-5.6-8-8.1-1.3-2.6-1.5-4-.2-1.4.2-2.9,14.2-12.6,14.2-12.6c0,0,5.8-12.5,12.3-18.3s10.9-6.3,16.8-7.8,9.8-1.7,14.7-1.2l28.1,3.1v1.5c-.1,0-14.9.6-21.4,2.2s-13,3.6-15.8,8.4c-.7,1.3-.7,2.8,0,4.1,2.2,3.7,8.7,8.6,11.2,10.5s1,1.3.9,2.1v1c-.2.5,0,1,.3,1.3l114.7,112,107.3,16.8Z" fill="#d82222"/><path d="M120,229.8l115,.8,5.7-6.9,57.3-.4,94-93-102.6,80.4-33.3.4,99.3-96.6c.4-.4,1-.6,1.5-.5h.8c.9.2,1.8,0,2.5-.6l8.5-6.4s2.7-3.1,7.7,1.5,10.7,11.9,10.7,11.9c0,0,2.9,3.2,7.1,1.6s6.5-5.6,8-8.1,1.3-2.6,1.5-4,.2-1.4-.2-2.9-14.2-12.6-14.2-12.6c0,0-5.8-12.5-12.3-18.3s-10.9-6.3-16.8-7.8-9.8-1.7-14.7-1.2l-28.1,3.1v1.5c.1,0,14.9.6,21.4,2.2s13,3.6,15.8,8.4.7,2.8,0,4.1c-2.2,3.7-8.7,8.6-11.2,10.5s-1,1.3-.9,2.1v1c.2.5,0,1-.3,1.3l-114.7,112-107.3,16.8Z" fill="#d82222"/><polygon points="799.8 255.1 528.3 241.1 408.8 121.3 288.8 240.6 18.4 255.1 298.8 255.1 408.8 142.1 519.1 255.1 799.8 255.1" fill="#d82222"/><rect x="378.8" y="191.2" width="28.6" height="28.6" fill="#fff"/><rect x="410.9" y="191.2" width="28.6" height="28.6" fill="#fff"/><rect x="410.9" y="223.3" width="28.6" height="28.6" fill="#fff"/><rect x="378.8" y="223.3" width="28.6" height="28.6" fill="#fff"/><path d="M338.9,366.7h-.1l-10.7,3.8v-7.8c0,0,12.3-5.8,12.3-5.8h9.1v46.9h-10.6v-37.1Z" fill="#fff"/><path d="M389.8,380.2c0,14.5-5.8,24.4-17.8,24.4s-17.4-10.9-17.5-24.1c0-13.6,5.8-24.3,17.9-24.3s17.4,11.2,17.4,24ZM365.5,380.5c0,10.7,2.5,15.9,6.8,15.9s6.6-5.3,6.6-16-2.2-15.9-6.6-15.9-6.8,5.1-6.7,16Z" fill="#fff"/><path d="M430.1,380.2c0,14.5-5.8,24.4-17.8,24.4s-17.4-10.9-17.5-24.1c0-13.6,5.8-24.3,17.9-24.3s17.4,11.2,17.4,24ZM405.8,380.5c0,10.7,2.5,15.9,6.8,15.9s6.6-5.3,6.6-16-2.2-15.9-6.6-15.9-6.8,5.1-6.7,16Z" fill="#fff"/><path d="M460.3,367.9c0-8-4.3-13.9-11.8-13.9s-12.3,6.3-12.3,14.7,5.3,14.1,12,14.1,12.2-5.1,12.2-14.9ZM443.8,368.4c0-4.7,1.4-8.4,4.5-8.4s4.4,3.7,4.4,8.4-1.4,8.4-4.3,8.4-4.5-3.5-4.5-8.4Z" fill="#fff"/><polygon points="473.9 355.4 447 403.9 452.9 403.9 479.8 355.4 473.9 355.4" fill="#fff"/><path d="M478.4,378.5c-7.5,0-12.3,6.3-12.3,14.7s5.3,14.1,12,14.1,12.2-5.1,12.2-14.9-4.3-13.9-11.8-13.9ZM478.3,401.4c-3,0-4.5-3.5-4.5-8.4s1.4-8.4,4.5-8.4,4.4,3.7,4.4,8.4-1.4,8.4-4.3,8.4Z" fill="#fff"/><path d="M42.1,275.5v10.6h-14.4v43.8h-13.3v-43.8H0v-10.6h42.1Z" fill="#fff"/><path d="M82.6,320.3h-20.3l-3.3,9.6h-13.9l19.7-54.4h15.3l19.7,54.4h-14l-3.3-9.6ZM79.2,310l-6.7-19.9-6.7,19.9h13.4Z" fill="#fff"/><path d="M107.1,288.2c2.3-4.2,5.6-7.5,9.7-9.8,4.2-2.4,8.9-3.5,14.1-3.5s12,1.7,16.6,5.1c4.6,3.4,7.7,8.1,9.2,14h-14.6c-1.1-2.3-2.6-4-4.6-5.2-2-1.2-4.3-1.8-6.8-1.8-4.1,0-7.4,1.4-9.9,4.3-2.5,2.8-3.8,6.6-3.8,11.4s1.3,8.6,3.8,11.4c2.5,2.8,5.8,4.3,9.9,4.3s4.8-.6,6.8-1.8c2-1.2,3.5-2.9,4.6-5.2h14.6c-1.5,5.9-4.6,10.5-9.2,13.9-4.6,3.4-10.1,5.1-16.6,5.1s-10-1.2-14.1-3.5c-4.2-2.4-7.4-5.6-9.7-9.8-2.3-4.2-3.5-9-3.5-14.3s1.2-10.2,3.5-14.4Z" fill="#fff"/><path d="M182.6,288.2c2.3-4.2,5.6-7.5,9.7-9.8,4.2-2.4,8.9-3.5,14.1-3.5s12,1.7,16.6,5.1c4.6,3.4,7.7,8.1,9.2,14h-14.6c-1.1-2.3-2.6-4-4.6-5.2-2-1.2-4.3-1.8-6.8-1.8-4.1,0-7.4,1.4-9.9,4.3-2.5,2.8-3.8,6.6-3.8,11.4s1.3,8.6,3.8,11.4c2.5,2.8,5.8,4.3,9.9,4.3s4.8-.6,6.8-1.8c2-1.2,3.5-2.9,4.6-5.2h14.6c-1.6,5.9-4.6,10.5-9.2,13.9-4.6,3.4-10.1,5.1-16.6,5.1s-10-1.2-14.1-3.5c-4.2-2.4-7.4-5.6-9.7-9.8-2.3-4.2-3.5-9-3.5-14.3s1.2-10.2,3.5-14.4Z" fill="#fff"/><path d="M252.1,326.9c-4.3-2.4-7.6-5.7-10.2-10-2.5-4.3-3.8-9.1-3.8-14.4s1.3-10.1,3.8-14.3c2.5-4.2,5.9-7.5,10.2-9.9,4.3-2.4,9-3.6,14.1-3.6s9.8,1.2,14.1,3.6c4.3,2.4,7.6,5.7,10.1,9.9,2.5,4.2,3.7,9,3.7,14.3s-1.2,10.1-3.7,14.4c-2.5,4.3-5.8,7.6-10.1,10-4.2,2.4-8.9,3.6-14,3.6s-9.8-1.2-14.1-3.6ZM276.6,314c2.6-2.9,3.9-6.7,3.9-11.5s-1.3-8.6-3.9-11.5c-2.6-2.9-6.1-4.3-10.4-4.3s-7.9,1.4-10.5,4.3c-2.6,2.8-3.9,6.7-3.9,11.6s1.3,8.6,3.9,11.5,6.1,4.3,10.5,4.3,7.8-1.4,10.4-4.3Z" fill="#fff"/><path d="M350.1,329.9h-13.3l-22.2-33.6v33.6h-13.3v-54.4h13.3l22.2,33.7v-33.7h13.3v54.4Z" fill="#fff"/><path d="M368.7,328.5c-3.2-1.3-5.7-3.2-7.6-5.7-1.9-2.5-2.9-5.6-3-9.1h14.1c.2,2,.9,3.6,2.1,4.6,1.2,1.1,2.7,1.6,4.7,1.6s3.5-.5,4.7-1.4c1.1-.9,1.7-2.2,1.7-3.8s-.5-2.5-1.4-3.3c-.9-.9-2-1.6-3.3-2.2-1.3-.6-3.2-1.2-5.6-1.9-3.5-1.1-6.4-2.2-8.6-3.3-2.2-1.1-4.1-2.7-5.7-4.8-1.6-2.1-2.4-4.9-2.4-8.3,0-5.1,1.8-9,5.5-11.9,3.7-2.9,8.5-4.3,14.3-4.3s10.8,1.4,14.5,4.3c3.7,2.9,5.6,6.9,5.9,12h-14.3c-.1-1.8-.8-3.1-1.9-4.1-1.2-1-2.7-1.5-4.6-1.5s-2.9.4-3.9,1.3c-1,.9-1.5,2.1-1.5,3.7s.8,3.1,2.5,4.1c1.7,1,4.2,2,7.8,3.2,3.5,1.2,6.4,2.3,8.6,3.4,2.2,1.1,4.1,2.7,5.7,4.7,1.6,2.1,2.4,4.7,2.4,8s-.8,5.9-2.4,8.4c-1.6,2.5-3.9,4.5-6.9,6-3,1.5-6.5,2.2-10.6,2.2s-7.5-.6-10.7-1.9Z" fill="#fff"/><path d="M446.5,275.5v10.6h-14.4v43.8h-13.3v-43.8h-14.4v-10.6h42.1Z" fill="#fff"/><path d="M480.9,329.9l-11.3-20.5h-3.2v20.5h-13.3v-54.4h22.2c4.3,0,7.9.8,11,2.2,3,1.5,5.3,3.6,6.8,6.2,1.5,2.6,2.2,5.5,2.2,8.7s-1,6.8-3.1,9.7c-2,2.8-5.1,4.9-9,6l12.6,21.6h-15ZM466.4,300h8.2c2.4,0,4.2-.6,5.5-1.8,1.2-1.2,1.8-2.9,1.8-5s-.6-3.7-1.8-4.9c-1.2-1.2-3-1.8-5.5-1.8h-8.2v13.5Z" fill="#fff"/><path d="M516.7,275.5v32.6c0,3.3.8,5.8,2.4,7.5,1.6,1.8,4,2.6,7.1,2.6s5.5-.9,7.1-2.6c1.7-1.8,2.5-4.3,2.5-7.5v-32.6h13.3v32.5c0,4.9-1,9-3.1,12.3-2.1,3.4-4.8,5.9-8.3,7.6-3.5,1.7-7.4,2.6-11.7,2.6s-8.1-.8-11.5-2.5c-3.4-1.7-6.1-4.2-8-7.6-2-3.4-2.9-7.5-2.9-12.4v-32.5h13.3Z" fill="#fff"/><path d="M559.6,288.2c2.3-4.2,5.6-7.5,9.7-9.8,4.2-2.4,8.9-3.5,14.1-3.5s12,1.7,16.6,5.1c4.6,3.4,7.7,8.1,9.2,14h-14.6c-1.1-2.3-2.6-4-4.6-5.2-2-1.2-4.3-1.8-6.8-1.8-4.1,0-7.4,1.4-9.9,4.3-2.5,2.8-3.8,6.6-3.8,11.4s1.3,8.6,3.8,11.4c2.5,2.8,5.8,4.3,9.9,4.3s4.8-.6,6.8-1.8c2-1.2,3.5-2.9,4.6-5.2h14.6c-1.6,5.9-4.6,10.5-9.2,13.9-4.6,3.4-10.1,5.1-16.6,5.1s-10-1.2-14.1-3.5c-4.2-2.4-7.4-5.6-9.7-9.8-2.3-4.2-3.5-9-3.5-14.3s1.2-10.2,3.5-14.4Z" fill="#fff"/><path d="M656.6,275.5v10.6h-14.4v43.8h-13.3v-43.8h-14.4v-10.6h42.1Z" fill="#fff"/><path d="M676.5,275.5v54.4h-13.3v-54.4h13.3Z" fill="#fff"/><path d="M697.8,326.9c-4.3-2.4-7.6-5.7-10.2-10s-3.8-9.1-3.8-14.4,1.3-10.1,3.8-14.3c2.5-4.2,5.9-7.5,10.2-9.9,4.3-2.4,9-3.6,14.1-3.6s9.8,1.2,14.1,3.6c4.3,2.4,7.6,5.7,10.1,9.9,2.5,4.2,3.7,9,3.7,14.3s-1.2,10.1-3.7,14.4c-2.5,4.3-5.8,7.6-10.1,10-4.2,2.4-8.9,3.6-14,3.6s-9.8-1.2-14.1-3.6ZM722.3,314c2.6-2.9,3.9-6.7,3.9-11.5s-1.3-8.6-3.9-11.5c-2.6-2.9-6.1-4.3-10.4-4.3s-7.9,1.4-10.5,4.3c-2.6,2.8-3.9,6.7-3.9,11.6s1.3,8.6,3.9,11.5c2.6,2.9,6.1,4.3,10.5,4.3s7.8-1.4,10.4-4.3Z" fill="#fff"/><path d="M795.7,329.9h-13.3l-22.2-33.6v33.6h-13.3v-54.4h13.3l22.2,33.7v-33.7h13.3v54.4Z" fill="#fff"/><path d="M242.5,438.1l-32.2,23.8-5.6-7.6,32.2-23.8,5.6,7.6Z" fill="#169b62"/><path d="M250,448.7c2.5,1.8,5.9,4.7,9.5,8.2,4.4,4.3,6.8,8,7.3,11.7.4,3.1-.6,6-3.2,8.6-3.6,3.6-8.7,3.5-12.1,1.9h-.1c1.3,3,.5,6-1.3,9.3-2.3,4.1-5,8.8-5.5,10.4l-6.8-6.8c.3-1.3,1.9-4.3,4.5-8.7,2.7-4.3,2.4-6.6-.3-9.3l-2-2-11.1,11.2-6.6-6.5,27.8-28.1ZM244.5,467.5l2.6,2.6c3.3,3.3,6.9,3.6,9.3,1.1,2.6-2.6,2-5.7-1-8.8-1.6-1.6-2.7-2.4-3.2-2.8l-7.8,7.9Z" fill="#169b62"/><path d="M288.5,481.6l-23.6,32.4-7.6-5.5,23.6-32.4,7.6,5.5Z" fill="#169b62"/><path d="M285.1,516.3c1.6,2.3,4.5,5.2,8,7.1,3.8,2,6.6,1.6,7.9-.8,1.2-2.2,0-4.4-3.5-8.2-5-5.3-7.3-10.6-4.5-15.8,3.2-6,10.9-7.9,19.5-3.3,4.1,2.2,6.7,4.6,8.4,6.7l-5.3,5.5c-1.1-1.5-3.2-3.8-6.8-5.7-3.6-1.9-6.2-1.2-7.1.6-1.2,2.3.3,4.4,4.2,8.6,5.2,5.7,6.6,10.6,3.9,15.6-3.1,5.9-10.5,8.5-20.6,3.1-4.2-2.2-7.8-5.5-9.2-7.7l5.2-5.7Z" fill="#169b62"/><path d="M341.6,508.5l-4.4,14.7,14.8,4.4,4.4-14.7,9,2.7-11.5,38.4-9-2.7,4.8-16.1-14.8-4.4-4.8,16.1-9-2.7,11.5-38.4,9,2.7Z" fill="#169b62"/><path d="M433.1,539.3c.2,13.1-7.9,21.2-20,21.4-12.3.2-19.6-8.7-19.8-20.1-.2-12,7.6-21.1,19.9-21.3,12.7-.2,19.8,8.9,20,20ZM403.1,540.3c.1,7.8,4,13.3,10.3,13.2,6.3,0,9.9-6,9.8-13.8-.1-7.2-3.8-13.3-10.2-13.2-6.3,0-9.9,6-9.8,13.8Z" fill="#fff"/><path d="M458.9,556.4l-19.2-36.5,9.7-2.4,7,15.3c2,4.4,4.1,9.2,5.7,13h.1c-.4-4.4-.6-9.3-.7-14.4l-.5-16.8,9.7-2.4,7.3,15.6c2,4.3,3.7,8.3,5.4,12.5h.1c-.5-4.5-.7-9.3-1-14.1l-.6-16.7,9.3-2.3-.8,41.5-9.9,2.4-7.5-15.9c-1.7-3.7-3.3-7.2-4.9-11.5h-.1c.4,4.6.6,8.4.6,12.6l.3,17.7-10,2.5Z" fill="#fff"/><path d="M517.3,538.7l-18.6-35.5,9.7-5.1,14.4,9c4.1,2.6,8.6,5.9,12.4,9h.2c-3-4.5-5.7-9.2-8.5-14.5l-5.4-10.4,7.6-4,18.6,35.5-8.7,4.6-15-9.6c-4.2-2.6-9-6-12.9-9.2h-.1c2.7,4.7,5.4,9.7,8.4,15.4l5.6,10.7-7.6,4Z" fill="#ff883e"/><path d="M572.8,482.6l-11.9,9.6,6,7.4,13.3-10.7,4.7,5.8-20.6,16.6-25.2-31.2,19.9-16.1,4.7,5.8-12.6,10.2,5.2,6.5,11.9-9.6,4.6,5.7Z" fill="#ff883e"/><path d="M567.8,456.7c1.8-3,4.4-6.6,7.4-10.3,5-6.1,9.3-9.1,14.1-10.4,5.1-1.3,10.7-.3,16.1,4.2,5.9,4.9,8.1,10.5,8.1,15.7,0,5.6-3,11.8-8.2,18-3.1,3.7-5.5,6.2-7.2,7.8l-30.3-25.1ZM599,470.3c.6-.5,1.5-1.5,2.2-2.4,5.5-6.5,5.5-13.7-1.9-19.8-6.4-5.4-13-4.3-18.1,1.9-1.3,1.6-2.1,2.8-2.4,3.5l20.2,16.7Z" fill="#ff883e"/></g><g id="cutcontrol"><path d="M150.3,375.1c1.8.6,10.7,25.5,12.5,29.5,54.4,122.2,186.5,188.9,318,157,91.5-22.2,166.5-96.8,195.5-185.5l12.5-.5,14.7,29.2-16.7,34.3s-3.5-15.4-6.3-19.7-11-3.1-14.1,1.7c-5.8,9.1,6.6,30,8.3,40.2l-23.3,31.7c-2-8.9.4-28.3-14.6-23.5-12,3.8-2.3,31.6-2.1,40.8-.5,2.1-18.3,18.1-21.4,20.7s-6.8,5.7-7.5,5c1.6-7.6,5.6-22.5-5.2-24.3-18.5-3.1-10.9,29.8-14.7,39.6l-31.6,18.7c.2-6.9,5.5-12.9,3.1-20,0,0-3.1-3.7-4.5-4.5-15.7-9.5-16.6,23.3-21,33.1s-1.3,2-3,3c-5.8,3.3-21.1,8.1-28.1,9.9s-2.6.7-4,.5c1.5-4.3,4.3-8.4,5.8-12.7,2.4-7.3-2.1-13.1-9.8-12.8-11,1.9-14.5,24.3-20.9,32.1-19.3,3.8-38.9,5.4-58.5,6.5l-.5-2c7.3-4.9,17.2-13.4,9.7-22.7l-1.6-.9c-15.6-4.4-22.2,15.4-33.1,23-12.5.7-25.6-3.2-38-5.5l14-10.5c5-7.5-.8-15.4-9.4-14.4-8.5,1-25.5,18.3-30.8,17.8l-33.8-11.9,16.4-9c2.7-4.7,1.6-10.1-2.7-13.2-9.8-4.6-27.4,7.8-37.1,10l-31.6-19.7c8.7-1.2,27.4-5.1,19-17.5-6.7-9.9-29,2.3-39,2.1l-28-26.1c10.5-.8,27.3,3.6,23.5-13.5-4.4-9.7-28.8-5-38-6s-2.1-.3-3.5-1.5c-6.7-6-13.1-22.1-19-29.5,1.3-1.1,22.2,7.9,24.8-3.7,4-17.8-26.8-13.4-36.8-17.8-1.6-1.1-14.4-29.7-15-33s-.2-1.4,1-1c3.8,1.2,10.1,4.1,13.6,4.5,12.6,1.3,15.7-11.4,5.6-17.7l-28.2-10.3h35.5Z" fill="none"/><path d="M668.2,214.1c-2.7-.7-8.8-19.6-10.6-23.4C586.9,39.4,392.5-11.4,253.1,79.1c-49.1,31.8-86.1,79.2-107.4,133.6-4.6,3.4-7.6,1.2-10.3-2.9s-14.9-26.8-14.9-29.2c0-5.2,14-26,17.6-31.5,2.7,8.7,3,23.5,16,21,15.4-8.6-1.7-27.9-3.2-40.3l22.8-29.7c1.4.1,1.8,4.5,1.9,5.6.6,6.1-.9,12.9,5,16.3s2.3.8,3.5.7l3.2-.4c2.7-.3,5.1-1.8,6.4-4.1s2.1-4.7,2.1-6.6c0-8.4-4.1-19.7-4.1-28.1s.7-2.6,2-4c3.9-4.1,12.3-10.2,17.1-13.9,1.2-.9,9.2-7.3,9.9-6.6l-.2,16.4c0,4.4,3.3,8.2,7.7,8.3s6.3-1.4,8.3-4.3c5.9-8.4,1.5-24.5,4.6-34.4l33.5-18c-1,7-5.8,13.8-3.5,21l2,3c.7.6,1.5,1.2,2.5,1.5,20.3,6.4,15.1-30.5,23.3-35.8s19-6.1,23.7-7.3c3.9-1,8-1.7,12-2.5-2.8,6.8-13.3,18.3-4,24.5,16.7,11,22.3-28.7,33.5-30.4s12.4-.9,16.9-1.1,11.1.2,16.5,0c-2.3,3-5.7,5.6-8,8.5-6.4,8.3-2.2,19.3,8.2,17.3s17.4-19.4,23.4-24.8c12.6-.4,25.1.3,37.3,3-3.1,5.3-11.1,6.6-12.6,12.9-1.8,7.6,2.3,12.4,10.1,12.1s18.9-14.7,25.5-19.6c1.7-1,3.4-.5,5.2-.3,3.6.4,32,9.6,32.8,11.3-7.7,3.2-22.9,10.4-13.5,20.5,9,9.8,27.7-8.1,36.9-11.9,9.3,5.3,23.2,9.8,31.2,16.9,1,.9,2.1,1.4.5,2.5-5.6,3.9-16.8,2-17.1,12-.6,20.3,28.7,1.8,36.8.7s14.1,7.7,18.3,11.3,9.7,9.8,15,14c-6.8,2.4-21.9-1.2-23,9.1-1.8,18.1,31.4,6.7,41,9.9l23,30c-6.6.2-14.2-4.1-20.6-1.6-7.1,2.9-7.3,11.2-1.5,15.6,6.8,5.1,25.2,3.6,33.9,5.7l16.2,36.8c-6.8-2.8-19.1-10.1-24.4-2-3,4.6-1.1,8.8,2.5,12.4l23,11.5h-29.5Z" fill="none"/><path d="M697.7,229.8l-115,.8-5.7-6.9-57.3-.4-94-93,102.6,80.4,33.3.4-99.3-96.6c-.4-.4-1-.6-1.5-.5h-.8c-.9.2-1.8,0-2.5-.6l-8.5-6.4s-2.7-3.1-7.7,1.5c-5,4.6-10.7,11.9-10.7,11.9,0,0-2.9,3.2-7.1,1.6s-6.5-5.6-8-8.1-1.3-2.6-1.5-4-.2-1.4.2-2.9,14.2-12.6,14.2-12.6c0,0,5.8-12.5,12.3-18.3s10.9-6.3,16.8-7.8,9.8-1.7,14.7-1.2l28.1,3.1v1.5c-.1,0-14.9.6-21.4,2.2s-13,3.6-15.8,8.4c-.7,1.3-.7,2.8,0,4.1,2.2,3.7,8.7,8.6,11.2,10.5s1,1.3.9,2.1v1c-.2.5,0,1,.3,1.3l114.7,112,107.3,16.8Z" fill="none"/><path d="M120,229.8l115,.8,5.7-6.9,57.3-.4,94-93-102.6,80.4-33.3.4,99.3-96.6c.4-.4,1-.6,1.5-.5h.8c.9.2,1.8,0,2.5-.6l8.5-6.4s2.7-3.1,7.7,1.5,10.7,11.9,10.7,11.9c0,0,2.9,3.2,7.1,1.6s6.5-5.6,8-8.1,1.3-2.6,1.5-4,.2-1.4-.2-2.9-14.2-12.6-14.2-12.6c0,0-5.8-12.5-12.3-18.3s-10.9-6.3-16.8-7.8-9.8-1.7-14.7-1.2l-28.1,3.1v1.5c.1,0,14.9.6,21.4,2.2s13,3.6,15.8,8.4.7,2.8,0,4.1c-2.2,3.7-8.7,8.6-11.2,10.5s-1,1.3-.9,2.1v1c.2.5,0,1-.3,1.3l-114.7,112-107.3,16.8Z" fill="none"/><polygon points="799.8 255.1 528.3 241.1 408.8 121.3 288.8 240.6 18.4 255.1 298.8 255.1 408.8 142.1 519.1 255.1 799.8 255.1" fill="none"/><rect x="378.8" y="191.2" width="28.6" height="28.6" fill="none"/><rect x="410.9" y="191.2" width="28.6" height="28.6" fill="none"/><rect x="410.9" y="223.3" width="28.6" height="28.6" fill="none"/><rect x="378.8" y="223.3" width="28.6" height="28.6" fill="none"/><path d="M42.1,275.5v10.6h-14.4v43.8h-13.3v-43.8H0v-10.6h42.1Z" fill="none"/><path d="M82.6,320.3h-20.3l-3.3,9.6h-13.9l19.7-54.4h15.3l19.7,54.4h-14l-3.3-9.6ZM79.2,310l-6.7-19.9-6.7,19.9h13.4Z" fill="none"/><path d="M107.1,288.2c2.3-4.2,5.6-7.5,9.7-9.8,4.2-2.4,8.9-3.5,14.1-3.5s12,1.7,16.6,5.1c4.6,3.4,7.7,8.1,9.2,14h-14.6c-1.1-2.3-2.6-4-4.6-5.2-2-1.2-4.3-1.8-6.8-1.8-4.1,0-7.4,1.4-9.9,4.3-2.5,2.8-3.8,6.6-3.8,11.4s1.3,8.6,3.8,11.4c2.5,2.8,5.8,4.3,9.9,4.3s4.8-.6,6.8-1.8c2-1.2,3.5-2.9,4.6-5.2h14.6c-1.5,5.9-4.6,10.5-9.2,13.9-4.6,3.4-10.1,5.1-16.6,5.1s-10-1.2-14.1-3.5c-4.2-2.4-7.4-5.6-9.7-9.8-2.3-4.2-3.5-9-3.5-14.3s1.2-10.2,3.5-14.4Z" fill="none"/><path d="M182.6,288.2c2.3-4.2,5.6-7.5,9.7-9.8,4.2-2.4,8.9-3.5,14.1-3.5s12,1.7,16.6,5.1c4.6,3.4,7.7,8.1,9.2,14h-14.6c-1.1-2.3-2.6-4-4.6-5.2-2-1.2-4.3-1.8-6.8-1.8-4.1,0-7.4,1.4-9.9,4.3-2.5,2.8-3.8,6.6-3.8,11.4s1.3,8.6,3.8,11.4c2.5,2.8,5.8,4.3,9.9,4.3s4.8-.6,6.8-1.8c2-1.2,3.5-2.9,4.6-5.2h14.6c-1.6,5.9-4.6,10.5-9.2,13.9-4.6,3.4-10.1,5.1-16.6,5.1s-10-1.2-14.1-3.5c-4.2-2.4-7.4-5.6-9.7-9.8-2.3-4.2-3.5-9-3.5-14.3s1.2-10.2,3.5-14.4Z" fill="none"/><path d="M252.1,326.9c-4.3-2.4-7.6-5.7-10.2-10-2.5-4.3-3.8-9.1-3.8-14.4s1.3-10.1,3.8-14.3c2.5-4.2,5.9-7.5,10.2-9.9,4.3-2.4,9-3.6,14.1-3.6s9.8,1.2,14.1,3.6c4.3,2.4,7.6,5.7,10.1,9.9,2.5,4.2,3.7,9,3.7,14.3s-1.2,10.1-3.7,14.4c-2.5,4.3-5.8,7.6-10.1,10-4.2,2.4-8.9,3.6-14,3.6s-9.8-1.2-14.1-3.6ZM276.6,314c2.6-2.9,3.9-6.7,3.9-11.5s-1.3-8.6-3.9-11.5c-2.6-2.9-6.1-4.3-10.4-4.3s-7.9,1.4-10.5,4.3c-2.6,2.8-3.9,6.7-3.9,11.6s1.3,8.6,3.9,11.5,6.1,4.3,10.5,4.3,7.8-1.4,10.4-4.3Z" fill="none"/><path d="M350.1,329.9h-13.3l-22.2-33.6v33.6h-13.3v-54.4h13.3l22.2,33.7v-33.7h13.3v54.4Z" fill="none"/><path d="M368.7,328.5c-3.2-1.3-5.7-3.2-7.6-5.7-1.9-2.5-2.9-5.6-3-9.1h14.1c.2,2,.9,3.6,2.1,4.6,1.2,1.1,2.7,1.6,4.7,1.6s3.5-.5,4.7-1.4c1.1-.9,1.7-2.2,1.7-3.8s-.5-2.5-1.4-3.3c-.9-.9-2-1.6-3.3-2.2-1.3-.6-3.2-1.2-5.6-1.9-3.5-1.1-6.4-2.2-8.6-3.3-2.2-1.1-4.1-2.7-5.7-4.8-1.6-2.1-2.4-4.9-2.4-8.3,0-5.1,1.8-9,5.5-11.9,3.7-2.9,8.5-4.3,14.3-4.3s10.8,1.4,14.5,4.3c3.7,2.9,5.6,6.9,5.9,12h-14.3c-.1-1.8-.8-3.1-1.9-4.1-1.2-1-2.7-1.5-4.6-1.5s-2.9.4-3.9,1.3c-1,.9-1.5,2.1-1.5,3.7s.8,3.1,2.5,4.1c1.7,1,4.2,2,7.8,3.2,3.5,1.2,6.4,2.3,8.6,3.4,2.2,1.1,4.1,2.7,5.7,4.7,1.6,2.1,2.4,4.7,2.4,8s-.8,5.9-2.4,8.4c-1.6,2.5-3.9,4.5-6.9,6-3,1.5-6.5,2.2-10.6,2.2s-7.5-.6-10.7-1.9Z" fill="none"/><path d="M446.5,275.5v10.6h-14.4v43.8h-13.3v-43.8h-14.4v-10.6h42.1Z" fill="none"/><path d="M480.9,329.9l-11.3-20.5h-3.2v20.5h-13.3v-54.4h22.2c4.3,0,7.9.8,11,2.2,3,1.5,5.3,3.6,6.8,6.2,1.5,2.6,2.2,5.5,2.2,8.7s-1,6.8-3.1,9.7c-2,2.8-5.1,4.9-9,6l12.6,21.6h-15ZM466.4,300h8.2c2.4,0,4.2-.6,5.5-1.8,1.2-1.2,1.8-2.9,1.8-5s-.6-3.7-1.8-4.9c-1.2-1.2-3-1.8-5.5-1.8h-8.2v13.5Z" fill="none"/><path d="M516.7,275.5v32.6c0,3.3.8,5.8,2.4,7.5,1.6,1.8,4,2.6,7.1,2.6s5.5-.9,7.1-2.6c1.7-1.8,2.5-4.3,2.5-7.5v-32.6h13.3v32.5c0,4.9-1,9-3.1,12.3-2.1,3.4-4.8,5.9-8.3,7.6-3.5,1.7-7.4,2.6-11.7,2.6s-8.1-.8-11.5-2.5c-3.4-1.7-6.1-4.2-8-7.6-2-3.4-2.9-7.5-2.9-12.4v-32.5h13.3Z" fill="none"/><path d="M559.6,288.2c2.3-4.2,5.6-7.5,9.7-9.8,4.2-2.4,8.9-3.5,14.1-3.5s12,1.7,16.6,5.1c4.6,3.4,7.7,8.1,9.2,14h-14.6c-1.1-2.3-2.6-4-4.6-5.2-2-1.2-4.3-1.8-6.8-1.8-4.1,0-7.4,1.4-9.9,4.3-2.5,2.8-3.8,6.6-3.8,11.4s1.3,8.6,3.8,11.4c2.5,2.8,5.8,4.3,9.9,4.3s4.8-.6,6.8-1.8c2-1.2,3.5-2.9,4.6-5.2h14.6c-1.6,5.9-4.6,10.5-9.2,13.9-4.6,3.4-10.1,5.1-16.6,5.1s-10-1.2-14.1-3.5c-4.2-2.4-7.4-5.6-9.7-9.8-2.3-4.2-3.5-9-3.5-14.3s1.2-10.2,3.5-14.4Z" fill="none"/><path d="M656.6,275.5v10.6h-14.4v43.8h-13.3v-43.8h-14.4v-10.6h42.1Z" fill="none"/><path d="M676.5,275.5v54.4h-13.3v-54.4h13.3Z" fill="none"/><path d="M697.8,326.9c-4.3-2.4-7.6-5.7-10.2-10s-3.8-9.1-3.8-14.4,1.3-10.1,3.8-14.3c2.5-4.2,5.9-7.5,10.2-9.9,4.3-2.4,9-3.6,14.1-3.6s9.8,1.2,14.1,3.6c4.3,2.4,7.6,5.7,10.1,9.9,2.5,4.2,3.7,9,3.7,14.3s-1.2,10.1-3.7,14.4c-2.5,4.3-5.8,7.6-10.1,10-4.2,2.4-8.9,3.6-14,3.6s-9.8-1.2-14.1-3.6ZM722.3,314c2.6-2.9,3.9-6.7,3.9-11.5s-1.3-8.6-3.9-11.5c-2.6-2.9-6.1-4.3-10.4-4.3s-7.9,1.4-10.5,4.3c-2.6,2.8-3.9,6.7-3.9,11.6s1.3,8.6,3.9,11.5c2.6,2.9,6.1,4.3,10.5,4.3s7.8-1.4,10.4-4.3Z" fill="none"/><path d="M795.7,329.9h-13.3l-22.2-33.6v33.6h-13.3v-54.4h13.3l22.2,33.7v-33.7h13.3v54.4Z" fill="none"/><path d="M242.5,438.1l-32.2,23.8-5.6-7.6,32.2-23.8,5.6,7.6Z" fill="none"/><path d="M250,448.7c2.5,1.8,5.9,4.7,9.5,8.2,4.4,4.3,6.8,8,7.3,11.7.4,3.1-.6,6-3.2,8.6-3.6,3.6-8.7,3.5-12.1,1.9h-.1c1.3,3,.5,6-1.3,9.3-2.3,4.1-5,8.8-5.5,10.4l-6.8-6.8c.3-1.3,1.9-4.3,4.5-8.7,2.7-4.3,2.4-6.6-.3-9.3l-2-2-11.1,11.2-6.6-6.5,27.8-28.1ZM244.5,467.5l2.6,2.6c3.3,3.3,6.9,3.6,9.3,1.1,2.6-2.6,2-5.7-1-8.8-1.6-1.6-2.7-2.4-3.2-2.8l-7.8,7.9Z" fill="none"/><path d="M288.5,481.6l-23.6,32.4-7.6-5.5,23.6-32.4,7.6,5.5Z" fill="none"/><path d="M285.1,516.3c1.6,2.3,4.5,5.2,8,7.1,3.8,2,6.6,1.6,7.9-.8,1.2-2.2,0-4.4-3.5-8.2-5-5.3-7.3-10.6-4.5-15.8,3.2-6,10.9-7.9,19.5-3.3,4.1,2.2,6.7,4.6,8.4,6.7l-5.3,5.5c-1.1-1.5-3.2-3.8-6.8-5.7-3.6-1.9-6.2-1.2-7.1.6-1.2,2.3.3,4.4,4.2,8.6,5.2,5.7,6.6,10.6,3.9,15.6-3.1,5.9-10.5,8.5-20.6,3.1-4.2-2.2-7.8-5.5-9.2-7.7l5.2-5.7Z" fill="none"/><path d="M341.6,508.5l-4.4,14.7,14.8,4.4,4.4-14.7,9,2.7-11.5,38.4-9-2.7,4.8-16.1-14.8-4.4-4.8,16.1-9-2.7,11.5-38.4,9,2.7Z" fill="none"/><path d="M433.1,539.3c.2,13.1-7.9,21.2-20,21.4-12.3.2-19.6-8.7-19.8-20.1-.2-12,7.6-21.1,19.9-21.3,12.7-.2,19.8,8.9,20,20ZM403.1,540.3c.1,7.8,4,13.3,10.3,13.2,6.3,0,9.9-6,9.8-13.8-.1-7.2-3.8-13.3-10.2-13.2-6.3,0-9.9,6-9.8,13.8Z" fill="none"/><path d="M458.9,556.4l-19.2-36.5,9.7-2.4,7,15.3c2,4.4,4.1,9.2,5.7,13h.1c-.4-4.4-.6-9.3-.7-14.4l-.5-16.8,9.7-2.4,7.3,15.6c2,4.3,3.7,8.3,5.4,12.5h.1c-.5-4.5-.7-9.3-1-14.1l-.6-16.7,9.3-2.3-.8,41.5-9.9,2.4-7.5-15.9c-1.7-3.7-3.3-7.2-4.9-11.5h-.1c.4,4.6.6,8.4.6,12.6l.3,17.7-10,2.5Z" fill="none"/><path d="M517.3,538.7l-18.6-35.5,9.7-5.1,14.4,9c4.1,2.6,8.6,5.9,12.4,9h.2c-3-4.5-5.7-9.2-8.5-14.5l-5.4-10.4,7.6-4,18.6,35.5-8.7,4.6-15-9.6c-4.2-2.6-9-6-12.9-9.2h-.1c2.7,4.7,5.4,9.7,8.4,15.4l5.6,10.7-7.6,4Z" fill="none"/><path d="M572.8,482.6l-11.9,9.6,6,7.4,13.3-10.7,4.7,5.8-20.6,16.6-25.2-31.2,19.9-16.1,4.7,5.8-12.6,10.2,5.2,6.5,11.9-9.6,4.6,5.7Z" fill="none"/><path d="M567.8,456.7c1.8-3,4.4-6.6,7.4-10.3,5-6.1,9.3-9.1,14.1-10.4,5.1-1.3,10.7-.3,16.1,4.2,5.9,4.9,8.1,10.5,8.1,15.7,0,5.6-3,11.8-8.2,18-3.1,3.7-5.5,6.2-7.2,7.8l-30.3-25.1ZM599,470.3c.6-.5,1.5-1.5,2.2-2.4,5.5-6.5,5.5-13.7-1.9-19.8-6.4-5.4-13-4.3-18.1,1.9-1.3,1.6-2.1,2.8-2.4,3.5l20.2,16.7Z" fill="none"/></g></svg>