<?xml version="1.0" encoding="UTF-8"?><svg id="Layer_2" xmlns="http://www.w3.org/2000/svg" width="796.8" height="263.6" viewBox="0 0 796.8 263.6"><g id="LOGO"><rect x="361.8" y="124.4" width="28.6" height="28.6"/><rect x="393.9" y="124.4" width="28.6" height="28.6"/><rect x="393.9" y="156.5" width="28.6" height="28.6"/><rect x="361.8" y="156.5" width="28.6" height="28.6"/><path d="M679.3,163l-115,.8-5.7-6.9-57.3-.4-94-93,102.6,80.4,33.3.4-99.3-96.6c-.4-.4-1-.6-1.5-.5h-.8c-.9.2-1.8,0-2.5-.6l-8.5-6.4s-2.7-3.1-7.7,1.5c-5,4.6-10.7,11.9-10.7,11.9,0,0-2.9,3.2-7.1,1.6s-6.5-5.6-8-8.1-1.3-2.6-1.5-4-.2-1.4.2-2.9c.5-2,14.2-12.6,14.2-12.6,0,0,5.8-12.5,12.3-18.3,3.7-3.3,10.9-6.3,16.8-7.8s9.8-1.7,14.7-1.2l28.1,3.1v1.5c-.1,0-14.9.6-21.4,2.2-5.9,1.4-13,3.6-15.8,8.4-.7,1.3-.7,2.8,0,4.1,2.2,3.7,8.7,8.6,11.2,10.5s1,1.3.9,2.1v1c-.2.5,0,1,.3,1.3l114.7,112,107.3,16.8Z" fill="#d82222"/><path d="M101.6,163l115,.8,5.7-6.9,57.3-.4,94-93-102.6,80.4-33.3.4,99.3-96.6c.4-.4,1-.6,1.5-.5h.8c.9.2,1.8,0,2.5-.6l8.5-6.4s2.7-3.1,7.7,1.5,10.7,11.9,10.7,11.9c0,0,2.9,3.2,7.1,1.6,3.1-1.1,6.5-5.6,8-8.1.8-1.2,1.3-2.6,1.5-4,.1-1,.2-1.4-.2-2.9s-14.2-12.6-14.2-12.6c0,0-5.8-12.5-12.3-18.3-3.7-3.3-10.9-6.3-16.8-7.8-4.8-1.3-9.8-1.7-14.7-1.2l-28.1,3.1v1.5c.1,0,14.9.6,21.4,2.2,5.9,1.4,13,3.6,15.8,8.4.7,1.3.7,2.8,0,4.1-2.2,3.7-8.7,8.6-11.2,10.5s-1,1.3-.9,2.1v1c.2.5,0,1-.3,1.3l-114.7,112-107.3,16.8Z" fill="#d82222"/><polygon points="781.4 188.3 509.9 174.3 390.4 54.5 270.4 173.7 0 188.3 280.4 188.3 390.4 75.3 500.7 188.3 781.4 188.3" fill="#d82222"/><path d="M43.1,208.6v10.6h-14.4v43.8h-13.3v-43.8H1v-10.6h42.1Z"/><path d="M83.7,253.5h-20.3l-3.3,9.6h-13.9l19.7-54.4h15.3l19.7,54.4h-14l-3.3-9.6ZM80.3,243.2l-6.7-19.9-6.7,19.9h13.4Z"/><path d="M108.2,221.4c2.3-4.2,5.6-7.5,9.7-9.8,4.2-2.4,8.9-3.5,14.1-3.5s12,1.7,16.6,5.1c4.6,3.4,7.7,8.1,9.2,14h-14.6c-1.1-2.3-2.6-4-4.6-5.2-2-1.2-4.3-1.8-6.8-1.8-4.1,0-7.4,1.4-9.9,4.3-2.5,2.8-3.8,6.6-3.8,11.4s1.3,8.6,3.8,11.4c2.5,2.8,5.8,4.3,9.9,4.3s4.8-.6,6.8-1.8c2-1.2,3.5-2.9,4.6-5.2h14.6c-1.5,5.9-4.6,10.5-9.2,13.9-4.6,3.4-10.1,5.1-16.6,5.1s-10-1.2-14.1-3.5c-4.2-2.4-7.4-5.6-9.7-9.8-2.3-4.2-3.5-9-3.5-14.3s1.2-10.2,3.5-14.4Z"/><path d="M183.7,221.4c2.3-4.2,5.6-7.5,9.7-9.8,4.2-2.4,8.9-3.5,14.1-3.5s12,1.7,16.6,5.1c4.6,3.4,7.7,8.1,9.2,14h-14.6c-1.1-2.3-2.6-4-4.6-5.2-2-1.2-4.3-1.8-6.8-1.8-4.1,0-7.4,1.4-9.9,4.3-2.5,2.8-3.8,6.6-3.8,11.4s1.3,8.6,3.8,11.4c2.5,2.8,5.8,4.3,9.9,4.3s4.8-.6,6.8-1.8c2-1.2,3.5-2.9,4.6-5.2h14.6c-1.6,5.9-4.6,10.5-9.2,13.9-4.6,3.4-10.1,5.1-16.6,5.1s-10-1.2-14.1-3.5c-4.2-2.4-7.4-5.6-9.7-9.8-2.3-4.2-3.5-9-3.5-14.3s1.2-10.2,3.5-14.4Z"/><path d="M253.2,260c-4.3-2.4-7.6-5.7-10.2-10-2.5-4.3-3.8-9.1-3.8-14.4s1.3-10.1,3.8-14.3c2.5-4.2,5.9-7.5,10.2-9.9,4.3-2.4,9-3.6,14.1-3.6s9.8,1.2,14.1,3.6c4.3,2.4,7.6,5.7,10.1,9.9,2.5,4.2,3.7,9,3.7,14.3s-1.2,10.1-3.7,14.4c-2.5,4.3-5.8,7.6-10.1,10-4.2,2.4-8.9,3.6-14,3.6s-9.8-1.2-14.1-3.6ZM277.7,247.2c2.6-2.9,3.9-6.7,3.9-11.5s-1.3-8.6-3.9-11.5c-2.6-2.9-6.1-4.3-10.4-4.3s-7.9,1.4-10.5,4.3c-2.6,2.8-3.9,6.7-3.9,11.6s1.3,8.6,3.9,11.5,6.1,4.3,10.5,4.3,7.8-1.4,10.4-4.3Z"/><path d="M351.1,263.1h-13.3l-22.2-33.6v33.6h-13.3v-54.4h13.3l22.2,33.7v-33.7h13.3v54.4Z"/><path d="M369.7,261.7c-3.2-1.3-5.7-3.2-7.6-5.7-1.9-2.5-2.9-5.6-3-9.1h14.1c.2,2,.9,3.6,2.1,4.6,1.2,1.1,2.7,1.6,4.7,1.6s3.5-.5,4.7-1.4c1.1-.9,1.7-2.2,1.7-3.8s-.5-2.5-1.4-3.3c-.9-.9-2-1.6-3.3-2.2-1.3-.6-3.2-1.2-5.6-1.9-3.5-1.1-6.4-2.2-8.6-3.3-2.2-1.1-4.1-2.7-5.7-4.8-1.6-2.1-2.4-4.9-2.4-8.3,0-5.1,1.8-9,5.5-11.9,3.7-2.9,8.5-4.3,14.3-4.3s10.8,1.4,14.5,4.3c3.7,2.9,5.6,6.9,5.9,12h-14.3c-.1-1.8-.8-3.1-1.9-4.1-1.2-1-2.7-1.5-4.6-1.5s-2.9.4-3.9,1.3c-1,.9-1.5,2.1-1.5,3.7s.8,3.1,2.5,4.1c1.7,1,4.2,2,7.8,3.2,3.5,1.2,6.4,2.3,8.6,3.4,2.2,1.1,4.1,2.7,5.7,4.7,1.6,2.1,2.4,4.7,2.4,8s-.8,5.9-2.4,8.4c-1.6,2.5-3.9,4.5-6.9,6-3,1.5-6.5,2.2-10.6,2.2s-7.5-.6-10.7-1.9Z"/><path d="M447.5,208.6v10.6h-14.4v43.8h-13.3v-43.8h-14.4v-10.6h42.1Z"/><path d="M482,263.1l-11.3-20.5h-3.2v20.5h-13.3v-54.4h22.2c4.3,0,7.9.8,11,2.2,3,1.5,5.3,3.6,6.8,6.2,1.5,2.6,2.2,5.5,2.2,8.7s-1,6.8-3.1,9.7c-2,2.8-5.1,4.9-9,6l12.6,21.6h-15ZM467.5,233.1h8.2c2.4,0,4.2-.6,5.5-1.8,1.2-1.2,1.8-2.9,1.8-5s-.6-3.7-1.8-4.9c-1.2-1.2-3-1.8-5.5-1.8h-8.2v13.5Z"/><path d="M517.8,208.6v32.6c0,3.3.8,5.8,2.4,7.5,1.6,1.8,4,2.6,7.1,2.6s5.5-.9,7.1-2.6c1.7-1.8,2.5-4.3,2.5-7.5v-32.6h13.3v32.5c0,4.9-1,9-3.1,12.3-2.1,3.4-4.8,5.9-8.3,7.6-3.5,1.7-7.4,2.6-11.7,2.6s-8.1-.8-11.5-2.5c-3.4-1.7-6.1-4.2-8-7.6-2-3.4-2.9-7.5-2.9-12.4v-32.5h13.3Z"/><path d="M560.6,221.4c2.3-4.2,5.6-7.5,9.7-9.8,4.2-2.4,8.9-3.5,14.1-3.5s12,1.7,16.6,5.1c4.6,3.4,7.7,8.1,9.2,14h-14.6c-1.1-2.3-2.6-4-4.6-5.2-2-1.2-4.3-1.8-6.8-1.8-4.1,0-7.4,1.4-9.9,4.3-2.5,2.8-3.8,6.6-3.8,11.4s1.3,8.6,3.8,11.4c2.5,2.8,5.8,4.3,9.9,4.3s4.8-.6,6.8-1.8c2-1.2,3.5-2.9,4.6-5.2h14.6c-1.6,5.9-4.6,10.5-9.2,13.9-4.6,3.4-10.1,5.1-16.6,5.1s-10-1.2-14.1-3.5c-4.2-2.4-7.4-5.6-9.7-9.8-2.3-4.2-3.5-9-3.5-14.3s1.2-10.2,3.5-14.4Z"/><path d="M657.6,208.6v10.6h-14.4v43.8h-13.3v-43.8h-14.4v-10.6h42.1Z"/><path d="M677.5,208.6v54.4h-13.3v-54.4h13.3Z"/><path d="M698.8,260c-4.3-2.4-7.6-5.7-10.2-10s-3.8-9.1-3.8-14.4,1.3-10.1,3.8-14.3c2.5-4.2,5.9-7.5,10.2-9.9,4.3-2.4,9-3.6,14.1-3.6s9.8,1.2,14.1,3.6c4.3,2.4,7.6,5.7,10.1,9.9,2.5,4.2,3.7,9,3.7,14.3s-1.2,10.1-3.7,14.4c-2.5,4.3-5.8,7.6-10.1,10-4.2,2.4-8.9,3.6-14,3.6s-9.8-1.2-14.1-3.6ZM723.3,247.2c2.6-2.9,3.9-6.7,3.9-11.5s-1.3-8.6-3.9-11.5c-2.6-2.9-6.1-4.3-10.4-4.3s-7.9,1.4-10.5,4.3c-2.6,2.8-3.9,6.7-3.9,11.6s1.3,8.6,3.9,11.5c2.6,2.9,6.1,4.3,10.5,4.3s7.8-1.4,10.4-4.3Z"/><path d="M796.8,263.1h-13.3l-22.2-33.6v33.6h-13.3v-54.4h13.3l22.2,33.7v-33.7h13.3v54.4Z"/></g><g id="cutcontrol"><path d="M43.1,208.6v10.6h-14.4v43.8h-13.3v-43.8H1v-10.6h42.1Z" fill="none"/><path d="M83.7,253.5h-20.3l-3.3,9.6h-13.9l19.7-54.4h15.3l19.7,54.4h-14l-3.3-9.6ZM80.3,243.2l-6.7-19.9-6.7,19.9h13.4Z" fill="none"/><path d="M108.2,221.4c2.3-4.2,5.6-7.5,9.7-9.8,4.2-2.4,8.9-3.5,14.1-3.5s12,1.7,16.6,5.1c4.6,3.4,7.7,8.1,9.2,14h-14.6c-1.1-2.3-2.6-4-4.6-5.2-2-1.2-4.3-1.8-6.8-1.8-4.1,0-7.4,1.4-9.9,4.3-2.5,2.8-3.8,6.6-3.8,11.4s1.3,8.6,3.8,11.4c2.5,2.8,5.8,4.3,9.9,4.3s4.8-.6,6.8-1.8c2-1.2,3.5-2.9,4.6-5.2h14.6c-1.5,5.9-4.6,10.5-9.2,13.9-4.6,3.4-10.1,5.1-16.6,5.1s-10-1.2-14.1-3.5c-4.2-2.4-7.4-5.6-9.7-9.8-2.3-4.2-3.5-9-3.5-14.3s1.2-10.2,3.5-14.4Z" fill="none"/><path d="M183.7,221.4c2.3-4.2,5.6-7.5,9.7-9.8,4.2-2.4,8.9-3.5,14.1-3.5s12,1.7,16.6,5.1c4.6,3.4,7.7,8.1,9.2,14h-14.6c-1.1-2.3-2.6-4-4.6-5.2-2-1.2-4.3-1.8-6.8-1.8-4.1,0-7.4,1.4-9.9,4.3-2.5,2.8-3.8,6.6-3.8,11.4s1.3,8.6,3.8,11.4c2.5,2.8,5.8,4.3,9.9,4.3s4.8-.6,6.8-1.8c2-1.2,3.5-2.9,4.6-5.2h14.6c-1.6,5.9-4.6,10.5-9.2,13.9-4.6,3.4-10.1,5.1-16.6,5.1s-10-1.2-14.1-3.5c-4.2-2.4-7.4-5.6-9.7-9.8-2.3-4.2-3.5-9-3.5-14.3s1.2-10.2,3.5-14.4Z" fill="none"/><path d="M253.2,260c-4.3-2.4-7.6-5.7-10.2-10-2.5-4.3-3.8-9.1-3.8-14.4s1.3-10.1,3.8-14.3c2.5-4.2,5.9-7.5,10.2-9.9,4.3-2.4,9-3.6,14.1-3.6s9.8,1.2,14.1,3.6c4.3,2.4,7.6,5.7,10.1,9.9,2.5,4.2,3.7,9,3.7,14.3s-1.2,10.1-3.7,14.4c-2.5,4.3-5.8,7.6-10.1,10-4.2,2.4-8.9,3.6-14,3.6s-9.8-1.2-14.1-3.6ZM277.7,247.2c2.6-2.9,3.9-6.7,3.9-11.5s-1.3-8.6-3.9-11.5c-2.6-2.9-6.1-4.3-10.4-4.3s-7.9,1.4-10.5,4.3c-2.6,2.8-3.9,6.7-3.9,11.6s1.3,8.6,3.9,11.5,6.1,4.3,10.5,4.3,7.8-1.4,10.4-4.3Z" fill="none"/><path d="M351.1,263.1h-13.3l-22.2-33.6v33.6h-13.3v-54.4h13.3l22.2,33.7v-33.7h13.3v54.4Z" fill="none"/><path d="M369.7,261.7c-3.2-1.3-5.7-3.2-7.6-5.7-1.9-2.5-2.9-5.6-3-9.1h14.1c.2,2,.9,3.6,2.1,4.6,1.2,1.1,2.7,1.6,4.7,1.6s3.5-.5,4.7-1.4c1.1-.9,1.7-2.2,1.7-3.8s-.5-2.5-1.4-3.3c-.9-.9-2-1.6-3.3-2.2-1.3-.6-3.2-1.2-5.6-1.9-3.5-1.1-6.4-2.2-8.6-3.3-2.2-1.1-4.1-2.7-5.7-4.8-1.6-2.1-2.4-4.9-2.4-8.3,0-5.1,1.8-9,5.5-11.9,3.7-2.9,8.5-4.3,14.3-4.3s10.8,1.4,14.5,4.3c3.7,2.9,5.6,6.9,5.9,12h-14.3c-.1-1.8-.8-3.1-1.9-4.1-1.2-1-2.7-1.5-4.6-1.5s-2.9.4-3.9,1.3c-1,.9-1.5,2.1-1.5,3.7s.8,3.1,2.5,4.1c1.7,1,4.2,2,7.8,3.2,3.5,1.2,6.4,2.3,8.6,3.4,2.2,1.1,4.1,2.7,5.7,4.7,1.6,2.1,2.4,4.7,2.4,8s-.8,5.9-2.4,8.4c-1.6,2.5-3.9,4.5-6.9,6-3,1.5-6.5,2.2-10.6,2.2s-7.5-.6-10.7-1.9Z" fill="none"/><path d="M447.5,208.6v10.6h-14.4v43.8h-13.3v-43.8h-14.4v-10.6h42.1Z" fill="none"/><path d="M482,263.1l-11.3-20.5h-3.2v20.5h-13.3v-54.4h22.2c4.3,0,7.9.8,11,2.2,3,1.5,5.3,3.6,6.8,6.2,1.5,2.6,2.2,5.5,2.2,8.7s-1,6.8-3.1,9.7c-2,2.8-5.1,4.9-9,6l12.6,21.6h-15ZM467.5,233.1h8.2c2.4,0,4.2-.6,5.5-1.8,1.2-1.2,1.8-2.9,1.8-5s-.6-3.7-1.8-4.9c-1.2-1.2-3-1.8-5.5-1.8h-8.2v13.5Z" fill="none"/><path d="M517.8,208.6v32.6c0,3.3.8,5.8,2.4,7.5,1.6,1.8,4,2.6,7.1,2.6s5.5-.9,7.1-2.6c1.7-1.8,2.5-4.3,2.5-7.5v-32.6h13.3v32.5c0,4.9-1,9-3.1,12.3-2.1,3.4-4.8,5.9-8.3,7.6-3.5,1.7-7.4,2.6-11.7,2.6s-8.1-.8-11.5-2.5c-3.4-1.7-6.1-4.2-8-7.6-2-3.4-2.9-7.5-2.9-12.4v-32.5h13.3Z" fill="none"/><path d="M560.6,221.4c2.3-4.2,5.6-7.5,9.7-9.8,4.2-2.4,8.9-3.5,14.1-3.5s12,1.7,16.6,5.1c4.6,3.4,7.7,8.1,9.2,14h-14.6c-1.1-2.3-2.6-4-4.6-5.2-2-1.2-4.3-1.8-6.8-1.8-4.1,0-7.4,1.4-9.9,4.3-2.5,2.8-3.8,6.6-3.8,11.4s1.3,8.6,3.8,11.4c2.5,2.8,5.8,4.3,9.9,4.3s4.8-.6,6.8-1.8c2-1.2,3.5-2.9,4.6-5.2h14.6c-1.6,5.9-4.6,10.5-9.2,13.9-4.6,3.4-10.1,5.1-16.6,5.1s-10-1.2-14.1-3.5c-4.2-2.4-7.4-5.6-9.7-9.8-2.3-4.2-3.5-9-3.5-14.3s1.2-10.2,3.5-14.4Z" fill="none"/><path d="M657.6,208.6v10.6h-14.4v43.8h-13.3v-43.8h-14.4v-10.6h42.1Z" fill="none"/><path d="M677.5,208.6v54.4h-13.3v-54.4h13.3Z" fill="none"/><path d="M698.8,260c-4.3-2.4-7.6-5.7-10.2-10s-3.8-9.1-3.8-14.4,1.3-10.1,3.8-14.3c2.5-4.2,5.9-7.5,10.2-9.9,4.3-2.4,9-3.6,14.1-3.6s9.8,1.2,14.1,3.6c4.3,2.4,7.6,5.7,10.1,9.9,2.5,4.2,3.7,9,3.7,14.3s-1.2,10.1-3.7,14.4c-2.5,4.3-5.8,7.6-10.1,10-4.2,2.4-8.9,3.6-14,3.6s-9.8-1.2-14.1-3.6ZM723.3,247.2c2.6-2.9,3.9-6.7,3.9-11.5s-1.3-8.6-3.9-11.5c-2.6-2.9-6.1-4.3-10.4-4.3s-7.9,1.4-10.5,4.3c-2.6,2.8-3.9,6.7-3.9,11.6s1.3,8.6,3.9,11.5c2.6,2.9,6.1,4.3,10.5,4.3s7.8-1.4,10.4-4.3Z" fill="none"/><path d="M796.8,263.1h-13.3l-22.2-33.6v33.6h-13.3v-54.4h13.3l22.2,33.7v-33.7h13.3v54.4Z" fill="none"/></g></svg>